<?xml version="1.0" encoding="UTF-8"?>
<svg id="Camada_2" data-name="Camada 2" xmlns="http://www.w3.org/2000/svg" viewBox="0 0 23.5 23.5">
  <defs>
    <style>
      .cls-1 {
        fill: #ed8068;
        stroke-width: 0px;
      }
    </style>
  </defs>
  <g id="Camada_1-2" data-name="Camada 1">
    <path class="cls-1" d="M10.38,23.5v-2c-2.13-.25-4-1.19-5.61-2.81-1.61-1.63-2.53-3.48-2.76-5.56H0v-2.75h2c.25-2.13,1.19-4,2.81-5.61s3.48-2.53,5.56-2.76V0h2.75v2c2.08.23,3.94,1.15,5.56,2.76s2.56,3.48,2.81,5.61h2v2.75h-2c-.23,2.08-1.15,3.94-2.76,5.56s-3.48,2.56-5.61,2.81v2h-2.75ZM11.75,18.45c1.87,0,3.45-.65,4.75-1.95s1.95-2.88,1.95-4.75-.65-3.45-1.95-4.75-2.88-1.95-4.75-1.95-3.45.65-4.75,1.95-1.95,2.88-1.95,4.75.65,3.45,1.95,4.75,2.88,1.95,4.75,1.95ZM11.75,15.75c-1.1,0-2.04-.39-2.83-1.18s-1.18-1.73-1.18-2.83.39-2.04,1.18-2.83,1.73-1.18,2.83-1.18,2.04.39,2.83,1.18,1.18,1.73,1.18,2.83-.39,2.04-1.18,2.83-1.73,1.18-2.83,1.18Z"/>
  </g>
</svg>